<svg width="18" height="18" viewBox="0 0 18 18" fill="none" xmlns="http://www.w3.org/2000/svg">
<path d="M12.6509 11.0021C11.5346 12.1183 11.5346 13.3276 10.3254 13.3276C9.1161 13.3276 7.99984 12.1881 6.97661 11.0021C5.95339 9.81605 4.65109 8.67654 4.65109 7.65331C4.65109 6.63008 5.76734 6.53706 6.97661 5.32779C8.18589 4.11852 4.65109 0.862793 3.60461 0.862793C2.55813 0.862793 0.255859 4.21155 0.255859 4.21155C0.842034 7.59944 2.4296 10.7341 4.81388 13.2113C7.29187 15.5512 10.4073 17.1048 13.7671 17.6763C13.7671 17.6763 17.1159 15.3508 17.1159 14.3275C17.1159 13.3043 13.7671 9.83929 12.6509 10.9555" fill="white"/>
</svg>
