<svg width="14" height="14" viewBox="0 0 14 14" fill="none" xmlns="http://www.w3.org/2000/svg">
<path d="M13.8994 10.1442V12.1442C13.9001 12.3299 13.8621 12.5137 13.7877 12.6838C13.7133 12.8539 13.6042 13.0066 13.4674 13.1322C13.3306 13.2577 13.1691 13.3532 12.9932 13.4127C12.8173 13.4722 12.631 13.4943 12.446 13.4776C10.3946 13.2547 8.42404 12.5537 6.6927 11.4309C5.08192 10.4074 3.71626 9.04169 2.6927 7.43091C1.56602 5.69171 0.864865 3.71157 0.646036 1.65091C0.629376 1.46655 0.651286 1.28075 0.71037 1.10532C0.769453 0.9299 0.864417 0.768701 0.989213 0.631988C1.11401 0.495276 1.26591 0.386047 1.43523 0.311256C1.60455 0.236464 1.7876 0.197749 1.9727 0.197574H3.9727C4.29624 0.19439 4.6099 0.30896 4.85521 0.51993C5.10052 0.730899 5.26075 1.02387 5.30604 1.34424C5.39045 1.98429 5.547 2.61273 5.7727 3.21757C5.8624 3.45619 5.88181 3.71552 5.82864 3.96483C5.77547 4.21414 5.65195 4.44298 5.4727 4.62424L4.62604 5.47091C5.57507 7.13994 6.95701 8.52187 8.62604 9.47091L9.4727 8.62424C9.65396 8.445 9.88281 8.32147 10.1321 8.2683C10.3814 8.21513 10.6408 8.23455 10.8794 8.32424C11.4842 8.54994 12.1127 8.70649 12.7527 8.79091C13.0765 8.83659 13.3723 8.99971 13.5837 9.24924C13.7951 9.49876 13.9075 9.81729 13.8994 10.1442Z" fill="#253343"/>
</svg>
