<svg width="33" height="29" viewBox="0 0 33 29" fill="none" xmlns="http://www.w3.org/2000/svg">
<path d="M14.995 17.8198L12.5952 19.7981C12.0893 20.2151 11.3834 20.1781 10.9883 19.7252C10.8805 19.5945 10.7711 19.475 10.6633 19.3442C9.65567 18.1086 8.76978 16.8225 8.00569 15.486C7.25298 14.15 6.68243 12.8235 6.31524 11.5191C5.96101 10.204 5.86071 8.9591 6.02573 7.78495C6.13363 7.01723 6.37339 6.29054 6.74184 5.62746C7.11187 4.9531 7.63337 4.34353 8.31612 3.81066C9.14474 3.13758 9.9909 2.82935 10.8334 2.87351C11.1522 2.89022 11.4615 2.97466 11.7271 3.12506C12.004 3.27605 12.2373 3.493 12.401 3.79727L14.5236 7.62752C14.6888 7.92051 14.8003 8.18794 14.8679 8.44169C14.937 8.68415 14.9607 8.92422 14.9305 9.13873C14.8924 9.40969 14.7746 9.67647 14.5788 9.92779C14.3943 10.1797 14.1399 10.4393 13.8285 10.696L12.8379 11.5425C12.6952 11.6601 12.6176 11.8039 12.5923 11.9846C12.5796 12.0749 12.5798 12.1545 12.5899 12.246C12.6114 12.3381 12.636 12.4077 12.6493 12.4766C12.8018 12.8599 13.0866 13.3639 13.505 13.9772C13.9348 14.5911 14.3972 15.2181 14.9052 15.8475C15.0032 15.9664 15.1125 16.0859 15.2105 16.2047C15.604 16.6689 15.5139 17.3921 14.995 17.8198Z" fill="#6D28D9"/>
<path d="M26.8922 22.2874C26.8477 22.6035 26.7448 22.928 26.5865 23.2381C26.5397 23.3266 26.4928 23.4152 26.4346 23.5031C26.1839 23.8994 25.8795 24.2701 25.4985 24.6141C24.855 25.1945 24.1783 25.6026 23.4441 25.8485C23.4327 25.8479 23.4198 25.8586 23.4084 25.858C22.6986 26.0937 21.9493 26.2023 21.1637 26.1611C20.0024 26.1003 18.7995 25.7643 17.5679 25.1425C16.3364 24.5206 15.1318 23.7069 13.9655 22.7018C13.5675 22.3511 13.1695 22.0004 12.7975 21.6284L17.0393 18.1317C17.3248 18.3854 17.584 18.581 17.8056 18.7177C17.8594 18.7433 17.923 18.7807 17.9979 18.8188C18.0842 18.8574 18.1737 18.8735 18.2762 18.8789C18.4697 18.889 18.6273 18.829 18.7699 18.7114L19.7542 17.91C20.0785 17.6427 20.3819 17.4425 20.6628 17.3207C20.9469 17.1764 21.2199 17.1111 21.5045 17.126C21.7208 17.1373 21.9422 17.1944 22.1784 17.3092C22.4146 17.4239 22.6558 17.5844 22.9135 17.7912L26.3091 20.6419C26.5766 20.8606 26.7482 21.1084 26.8338 21.3973C26.908 21.6855 26.9366 21.9713 26.8922 22.2874Z" fill="#6D28D9"/>
</svg>
