<svg width="14" height="12" viewBox="0 0 14 12" fill="none" xmlns="http://www.w3.org/2000/svg">
<path d="M10.5664 0.19751H3.89974C1.89974 0.19751 0.566406 1.19751 0.566406 3.53084V8.19751C0.566406 10.5308 1.89974 11.5308 3.89974 11.5308H10.5664C12.5664 11.5308 13.8997 10.5308 13.8997 8.19751V3.53084C13.8997 1.19751 12.5664 0.19751 10.5664 0.19751ZM10.8797 4.25751L8.79307 5.92418C8.35307 6.27751 7.79307 6.45084 7.23307 6.45084C6.67307 6.45084 6.10641 6.27751 5.67307 5.92418L3.58641 4.25751C3.37307 4.08418 3.33974 3.76418 3.50641 3.55084C3.67974 3.33751 3.99307 3.29751 4.20641 3.47084L6.29307 5.13751C6.79974 5.54418 7.65974 5.54418 8.16641 5.13751L10.2531 3.47084C10.4664 3.29751 10.7864 3.33084 10.9531 3.55084C11.1264 3.76418 11.0931 4.08418 10.8797 4.25751Z" fill="#253343"/>
</svg>
