<svg width="17" height="17" viewBox="0 0 17 17" fill="none" xmlns="http://www.w3.org/2000/svg">
<path d="M5.33344 14.8042C5.31344 14.8042 5.28677 14.8176 5.26677 14.8176C3.97344 14.1776 2.9201 13.1176 2.27344 11.8242C2.27344 11.8042 2.28677 11.7776 2.28677 11.7576C3.1001 11.9976 3.9401 12.1776 4.77344 12.3176C4.9201 13.1576 5.09344 13.9909 5.33344 14.8042Z" fill="#253343"/>
<path d="M14.1937 11.8309C13.5337 13.1576 12.4337 14.2309 11.0938 14.8776C11.3471 14.0309 11.5604 13.1776 11.7004 12.3176C12.5404 12.1776 13.3671 11.9976 14.1804 11.7576C14.1737 11.7842 14.1937 11.8109 14.1937 11.8309Z" fill="#253343"/>
<path d="M14.2471 6.00416C13.4071 5.75083 12.5604 5.54416 11.7004 5.3975C11.5604 4.5375 11.3537 3.68416 11.0938 2.85083C12.4737 3.51083 13.5871 4.62416 14.2471 6.00416Z" fill="#253343"/>
<path d="M5.33599 2.9243C5.09599 3.73763 4.92266 4.5643 4.78266 5.4043C3.92266 5.53763 3.06932 5.75096 2.22266 6.0043C2.86932 4.6643 3.94266 3.5643 5.26932 2.9043C5.28932 2.9043 5.31599 2.9243 5.33599 2.9243Z" fill="#253343"/>
<path d="M10.5596 5.25751C9.01292 5.08418 7.45292 5.08418 5.90625 5.25751C6.07292 4.34418 6.28625 3.43084 6.58625 2.55084C6.59958 2.49751 6.59292 2.45751 6.59958 2.40418C7.12625 2.27751 7.66625 2.19751 8.23292 2.19751C8.79292 2.19751 9.33958 2.27751 9.85958 2.40418C9.86625 2.45751 9.86625 2.49751 9.87958 2.55084C10.1796 3.43751 10.3929 4.34418 10.5596 5.25751Z" fill="#253343"/>
<path d="M4.62641 11.1909C3.70641 11.0243 2.79974 10.8109 1.91974 10.5109C1.86641 10.4976 1.82641 10.5043 1.77307 10.4976C1.64641 9.97093 1.56641 9.43093 1.56641 8.86426C1.56641 8.30426 1.64641 7.7576 1.77307 7.2376C1.82641 7.23093 1.86641 7.23093 1.91974 7.2176C2.80641 6.92426 3.70641 6.70426 4.62641 6.5376C4.45974 8.08426 4.45974 9.64426 4.62641 11.1909Z" fill="#253343"/>
<path d="M14.8998 8.86426C14.8998 9.43093 14.8198 9.97093 14.6932 10.4976C14.6398 10.5043 14.5998 10.4976 14.5465 10.5109C13.6598 10.8043 12.7532 11.0243 11.8398 11.1909C12.0132 9.64426 12.0132 8.08426 11.8398 6.5376C12.7532 6.70426 13.6665 6.9176 14.5465 7.2176C14.5998 7.23093 14.6398 7.2376 14.6932 7.2376C14.8198 7.76426 14.8998 8.30426 14.8998 8.86426Z" fill="#253343"/>
<path d="M10.5596 12.4709C10.3929 13.3909 10.1796 14.2976 9.87958 15.1776C9.86625 15.2309 9.86625 15.2709 9.85958 15.3243C9.33958 15.4509 8.79292 15.5309 8.23292 15.5309C7.66625 15.5309 7.12625 15.4509 6.59958 15.3243C6.59292 15.2709 6.59958 15.2309 6.58625 15.1776C6.29292 14.2909 6.07292 13.3909 5.90625 12.4709C6.67958 12.5576 7.45292 12.6176 8.23292 12.6176C9.01292 12.6176 9.79292 12.5576 10.5596 12.4709Z" fill="#253343"/>
<path d="M10.742 11.3731C9.07456 11.5834 7.39158 11.5834 5.72419 11.3731C5.51381 9.70567 5.51381 8.02269 5.72419 6.35529C7.39158 6.14492 9.07456 6.14492 10.742 6.35529C10.9523 8.02269 10.9523 9.70567 10.742 11.3731Z" fill="#253343"/>
</svg>
