<svg width="39" height="37" viewBox="0 0 39 37" fill="none" xmlns="http://www.w3.org/2000/svg">
<path d="M11.5409 30.6256C11.4983 30.6234 11.4374 30.6486 11.3947 30.6464C8.82414 29.1469 6.8909 26.7852 5.89521 23.975C5.90116 23.9327 5.93755 23.8777 5.9435 23.8354C7.60836 24.4344 9.34799 24.9094 11.0853 25.299C11.1485 27.0936 11.2706 28.877 11.5409 30.6256Z" fill="#6D28D9"/>
<path d="M31.339 25.3226C29.5354 28.0572 26.8679 30.2062 23.8149 31.4252C24.6076 29.6612 25.3169 27.8787 25.8716 26.0739C27.7065 25.8715 29.5247 25.5829 31.3324 25.1659C31.3102 25.2216 31.345 25.2803 31.339 25.3226Z" fill="#6D28D9"/>
<path d="M33.187 12.9943C31.4692 12.364 29.7232 11.8318 27.931 11.4251C27.888 9.58897 27.7007 7.75945 27.3936 5.96631C30.1431 7.51783 32.1886 9.99917 33.187 12.9943Z" fill="#6D28D9"/>
<path d="M15.0758 5.47707C14.3215 7.17194 13.7055 8.9025 13.1567 10.665C11.2812 10.851 9.39606 11.2072 7.51328 11.6487C9.2924 8.88446 11.9109 6.67599 14.9394 5.42728C14.9821 5.42952 15.0331 5.47484 15.0758 5.47707Z" fill="#6D28D9"/>
<path d="M25.5389 11.0011C22.2888 10.4612 18.9586 10.2867 15.6053 10.4805C16.2328 8.56579 16.9599 6.65625 17.8621 4.82697C17.9065 4.71556 17.9041 4.63014 17.9342 4.51798C19.0962 4.30877 20.2728 4.19983 21.4825 4.26323C22.6779 4.32588 23.8211 4.55639 24.8935 4.8827C24.8919 4.99635 24.88 5.08102 24.8925 5.19541C25.2692 7.10593 25.4549 9.0491 25.5389 11.0011Z" fill="#6D28D9"/>
<path d="M11.1079 22.8975C9.1935 22.4418 7.32147 21.8888 5.53214 21.1553C5.42226 21.1211 5.33488 21.1307 5.22302 21.1106C5.1093 19.9816 5.09918 18.8295 5.26776 17.63C5.43437 16.4445 5.76778 15.2962 6.19289 14.2096C6.30872 14.2015 6.39411 14.206 6.51193 14.1837C8.49201 13.662 10.4787 13.2969 12.4923 13.0471C11.6763 16.3025 11.2122 19.6048 11.1079 22.8975Z" fill="#6D28D9"/>
<path d="M33.7317 19.1216C33.5631 20.3212 33.2317 21.4553 32.8046 22.556C32.6888 22.5642 32.6054 22.5456 32.4875 22.5678C30.5075 23.0896 28.5065 23.4539 26.5072 23.7045C27.3374 20.4498 27.8015 17.1475 27.8916 13.854C29.7917 14.309 31.678 14.8628 33.4673 15.5963C33.5772 15.6305 33.6606 15.6491 33.7745 15.655C33.8882 16.7841 33.8983 17.9361 33.7317 19.1216Z" fill="#6D28D9"/>
<path d="M23.3936 26.2708C22.7641 28.1997 22.039 30.0951 21.1368 31.9244C21.0924 32.0358 21.0805 32.1205 21.0504 32.2327C19.9027 32.4426 18.7119 32.5508 17.5164 32.4882C16.3067 32.4248 15.1778 32.195 14.0912 31.8679C14.0928 31.7543 14.1189 31.6704 14.1063 31.556C13.7439 29.6462 13.542 27.7164 13.46 25.7502C15.085 26.0202 16.7181 26.2338 18.3832 26.321C20.0483 26.4083 21.7312 26.3685 23.3936 26.2708Z" fill="#6D28D9"/>
<path d="M24.1093 23.9674C20.4872 24.2262 16.8945 24.0379 13.3976 23.406C13.4446 19.8528 13.9453 16.2901 14.8905 12.784C18.5125 12.5252 22.1052 12.7135 25.6021 13.3454C25.5551 16.8986 25.0545 20.4612 24.1093 23.9674Z" fill="#6D28D9"/>
</svg>
