<svg width="18" height="19" viewBox="0 0 18 19" fill="none" xmlns="http://www.w3.org/2000/svg">
<path d="M8.71468 0.176758C6.42814 0.293556 4.27381 1.28414 2.69671 2.94385C1.11961 4.60356 0.240234 6.80563 0.240234 9.09515C0.240234 11.3847 1.11961 13.5867 2.69671 15.2464C4.27381 16.9062 6.42814 17.8967 8.71468 18.0135H9.64488V17.8507L9.50535 16.781V16.6415H8.71468C7.15901 16.6365 5.64784 16.1219 4.41246 15.1764C8.9367 13.8285 12.9436 11.1356 15.9005 7.45565C16.0414 7.99522 16.1195 8.54929 16.1331 9.10679C16.1271 10.943 15.4487 12.7134 14.2262 14.0834L14.0866 14.2462H14.2727L15.1796 14.8275H15.2959V14.7113C16.327 13.4215 16.9813 11.8718 17.1866 10.2334C17.3918 8.59493 17.1399 6.93166 16.4588 5.42745C15.7777 3.92324 14.6939 2.6367 13.3272 1.71005C11.9605 0.783397 10.3642 0.252733 8.71468 0.176758ZM7.69145 3.13018C7.876 2.65123 7.876 2.1208 7.69145 1.64185C7.99377 1.64185 8.29608 1.64185 8.62166 1.64185C9.62688 1.66281 10.6168 1.89248 11.5286 2.31627C10.2445 3.72575 8.75485 4.93313 7.11007 5.89755C6.94728 5.4092 6.80775 4.94408 6.66822 4.43247C7.1299 4.10258 7.49194 3.65205 7.7147 3.13018H7.69145ZM6.45892 1.96742C6.52803 2.17101 6.52803 2.39173 6.45892 2.59532C6.2463 2.96874 5.94755 3.28593 5.58754 3.52055C5.22753 3.75516 4.81668 3.9004 4.38921 3.94413C4.07011 3.97524 3.74856 3.91895 3.459 3.78132C4.28194 2.95778 5.28506 2.3368 6.38916 1.96742H6.45892ZM2.59856 4.87432C3.18059 5.23927 3.86956 5.39512 4.55199 5.31617C4.8922 5.28529 5.22354 5.19063 5.52871 5.03712C5.66339 5.53441 5.82644 6.02355 6.01707 6.50218C4.54649 7.32896 2.98595 7.98441 1.36603 8.45564C1.46491 7.17274 1.89785 5.93804 2.62181 4.87432H2.59856ZM3.2497 14.1764C2.17245 12.9842 1.51142 11.4744 1.36603 9.87421C3.17993 9.3991 4.92351 8.68759 6.55194 7.75798C7.23374 9.17858 8.20857 10.4387 9.41233 11.4555C7.44874 12.539 5.39452 13.4494 3.27296 14.1764H3.2497ZM10.5983 10.6416C9.37595 9.69947 8.39545 8.47983 7.73796 7.08356C9.65969 5.96633 11.3875 4.54481 12.8541 2.87437C13.9062 3.6119 14.7543 4.604 15.3192 5.75803C14.2171 7.7759 12.5952 9.46207 10.6216 10.6416H10.5983Z" fill="white"/>
</svg>
