<svg width="158" height="164" viewBox="0 0 158 164" fill="none" xmlns="http://www.w3.org/2000/svg">
<path d="M149.822 8.48838L150.594 9.25713V26.6821C150.594 43.8509 150.594 44.1392 149.946 44.972C149.051 46.1571 147.199 46.1571 146.304 44.972C145.656 44.1392 145.656 43.8188 145.656 28.4759V12.8126H130.566C115.784 12.8126 115.476 12.8126 114.673 12.1399C113.532 11.211 113.532 9.28916 114.673 8.36026C115.476 7.6876 115.754 7.6876 132.294 7.6876H149.082L149.822 8.48838Z" fill="white"/>
<path d="M43.3268 8.36026C44.4686 9.28916 44.4686 11.211 43.3268 12.1399C42.5244 12.8126 42.2158 12.8126 27.4342 12.8126H12.3439V28.4759C12.3439 43.8188 12.3439 44.1392 11.6959 44.972C10.801 46.1571 8.94941 46.1571 8.05449 44.972C7.40644 44.1392 7.40644 43.8509 7.40644 26.6821V9.25713L8.17793 8.48838L8.91855 7.6876H25.7061C42.2467 7.6876 42.5244 7.6876 43.3268 8.36026Z" fill="white"/>
<path d="M81.2525 28.5078C85.4185 29.5969 88.4736 33.3125 88.8131 37.7328C88.9057 39.0461 89.0908 39.6867 89.3068 39.5906C89.492 39.4945 90.3869 39.2063 91.3127 38.8859C95.6639 37.5086 100.787 40.1031 102.854 44.7797C103.502 46.2531 103.533 46.6695 103.626 61.7883L103.718 77.2594L106.341 74.6328C109.89 71.1094 112.112 69.9883 115.568 69.9883C117.574 70.0203 118.376 70.1484 119.765 70.8531C121.987 71.9102 123.9 73.8641 124.949 76.2023C125.999 78.5727 126.091 82.6406 125.073 84.8828C124.733 85.6836 122.11 89.7195 119.271 93.8516C111.31 105.383 109.983 107.849 107.668 115.056C106.989 117.234 105.94 119.861 105.385 120.95C101.774 127.645 96.065 132.353 88.6588 134.755L85.9431 135.652H74.0623H62.1814L59.4658 134.755C49.8994 131.68 43.5115 125.05 40.5182 115.088L39.6541 112.27V84.4023V56.5352L40.333 55.0297C41.2896 52.8516 43.5424 50.4813 45.4557 49.6484C48.233 48.3992 50.7017 48.4313 53.726 49.7766C54.1271 49.9688 54.2506 49.6805 54.4049 48.1109C55.0838 41.5766 61.0396 37.0922 66.6869 38.8859C67.6127 39.2063 68.5076 39.4945 68.6928 39.5906C68.9088 39.6867 69.0939 39.0461 69.2174 37.7969C69.6185 34.0813 72.0256 30.5578 75.1424 29.1164C76.7471 28.3797 79.6478 28.0914 81.2525 28.5078ZM76.2842 34.2094C75.7596 34.5938 75.0498 35.5547 74.7103 36.2914C74.0623 37.6688 74.0623 38.0531 74.0623 58.0406C74.0623 78.1562 74.0623 78.4125 73.4142 79.2453C72.581 80.3344 70.7603 80.4305 69.8654 79.4055C69.3099 78.7648 69.2791 77.9 69.1248 62.7812C68.9705 47.2781 68.9396 46.7977 68.3224 45.9328C67.1498 44.2672 66.1314 43.7227 64.249 43.7227C62.0889 43.7227 60.8236 44.5555 59.8978 46.5414C59.2807 47.8867 59.2498 48.3672 59.2498 62.9094V77.868L58.4783 78.6367C57.5834 79.5977 56.1947 79.6617 55.2072 78.8289L54.4666 78.2203L54.3123 67.65C54.158 57.5922 54.1271 57.0156 53.5099 56.1828C52.3373 54.5172 51.3189 53.9727 49.4365 53.9727C47.2764 53.9727 46.0111 54.8055 45.0545 56.8234C44.4064 58.2328 44.4064 58.2648 44.499 85.075L44.5916 111.949L45.4248 114.512C46.6592 118.227 48.2639 120.886 51.0721 123.801C53.8803 126.716 56.4725 128.413 60.0213 129.63C62.4592 130.495 62.6443 130.495 72.5193 130.623C83.6287 130.752 85.7271 130.559 89.5228 129.054C93.8431 127.324 98.1017 123.577 100.57 119.316C101.157 118.323 102.237 115.601 103.008 113.295C105.446 105.703 106.866 103.077 114.735 91.6094C117.697 87.2852 120.32 83.3133 120.537 82.7367C121.154 81.2313 121.061 79.7898 120.259 78.1562C119.055 75.6578 116.494 74.5047 113.84 75.3055C112.667 75.6578 111.217 77.0031 103.656 84.7867C95.7873 92.8906 94.7381 93.8516 93.8431 93.8516C92.5162 93.8516 91.3435 92.6344 91.3435 91.257C91.3435 90.3602 91.8681 89.6875 95.0467 86.3242L98.7498 82.4484V65.1836C98.7498 48.3352 98.7498 47.8867 98.1017 46.5414C96.7439 43.6586 93.3185 42.7297 90.9115 44.6195C88.8439 46.2852 88.8748 45.9648 88.8748 63.0375V78.4445L88.165 79.3094C87.1467 80.4945 85.6654 80.4945 84.6471 79.3094L83.9373 78.4445V57.9766C83.9373 44.2672 83.8139 37.2203 83.5978 36.6117C83.1658 35.4266 82.1474 34.3055 81.0056 33.7609C79.7404 33.1523 77.4568 33.3766 76.2842 34.2094Z" fill="white"/>
<path d="M149.946 119.028C150.594 119.861 150.594 120.149 150.594 137.318V154.743L149.822 155.512L149.082 156.312H132.294C115.754 156.312 115.476 156.312 114.673 155.64C113.532 154.711 113.532 152.789 114.673 151.86C115.476 151.188 115.784 151.188 130.566 151.188H145.656V135.524C145.656 120.181 145.656 119.861 146.304 119.028C146.798 118.388 147.199 118.195 148.125 118.195C149.051 118.195 149.452 118.388 149.946 119.028Z" fill="white"/>
<path d="M11.6959 119.028C12.3439 119.861 12.3439 120.181 12.3439 135.524V151.188H27.4342C42.2158 151.188 42.5244 151.188 43.3268 151.86C44.4686 152.789 44.4686 154.711 43.3268 155.64C42.5244 156.312 42.2467 156.312 25.7061 156.312H8.91855L8.17793 155.512L7.40644 154.743V137.318C7.40644 120.149 7.40644 119.861 8.05449 119.028C8.54824 118.388 8.94941 118.195 9.87519 118.195C10.801 118.195 11.2021 118.388 11.6959 119.028Z" fill="white"/>
</svg>
