<svg width="23" height="22" viewBox="0 0 23 22" fill="none" xmlns="http://www.w3.org/2000/svg">
<path d="M19.9212 0.999778L5.68955 0.25393C3.96354 0.163474 2.36279 1.48303 2.12225 3.19458L0.138874 17.307C-0.10167 19.0186 1.10748 20.4854 2.83349 20.5759L17.0651 21.3217C18.7911 21.4122 20.3919 20.0926 20.6324 18.3811L22.6158 4.2686C22.8563 2.55705 21.6472 1.09023 19.9212 0.999778ZM7.16839 16.2538C7.12452 16.566 6.83459 16.805 6.51979 16.7885L4.81199 16.699C4.49719 16.6825 4.27819 16.4168 4.32206 16.1046L5.35342 8.76616C5.39729 8.45399 5.68722 8.21499 6.00202 8.23149L7.70981 8.32099C8.02462 8.33749 8.24362 8.60316 8.19974 8.91532L7.16839 16.2538ZM7.01459 7.14725C6.22843 7.10604 5.6802 6.44099 5.78976 5.66141C5.89932 4.88184 6.62511 4.28355 7.41126 4.32475C8.19742 4.36595 8.74565 5.03101 8.63609 5.81058C8.52652 6.59016 7.80074 7.18845 7.01459 7.14725ZM16.8459 16.761C16.802 17.0731 16.5121 17.3121 16.1973 17.2956L14.4895 17.2061C14.1747 17.1896 13.9557 16.924 13.9996 16.6118L14.5946 12.3781C14.704 11.5996 14.1548 10.9334 13.3698 10.8922C12.5847 10.8511 11.8577 11.4505 11.7483 12.2289L11.1532 16.4626C11.1094 16.7748 10.8194 17.0138 10.5046 16.9973L8.79685 16.9078C8.48204 16.8913 8.26304 16.6256 8.30692 16.3135L9.33827 8.97499C9.38214 8.66283 9.67207 8.42383 9.98687 8.44033L11.6947 8.52983C12.0095 8.54633 12.2285 8.81199 12.1846 9.12416L12.1417 9.42956C12.8226 8.92217 13.6655 8.63311 14.541 8.679C16.4247 8.77772 17.7431 10.3771 17.4806 12.245L16.8459 16.761Z" fill="#6D28D9"/>
</svg>
