<svg width="13" height="13" viewBox="0 0 13 13" fill="none" xmlns="http://www.w3.org/2000/svg">
<path d="M10.401 0.864258H2.06771C1.05704 0.864258 0.234375 1.68692 0.234375 2.69759V11.0309C0.234375 12.0416 1.05704 12.8643 2.06771 12.8643H10.401C11.4117 12.8643 12.2344 12.0416 12.2344 11.0309V2.69759C12.2344 1.68692 11.4117 0.864258 10.401 0.864258ZM4.23438 10.1976C4.23438 10.3819 4.08538 10.5309 3.90104 10.5309H2.90104C2.71671 10.5309 2.56771 10.3819 2.56771 10.1976V5.86426C2.56771 5.67992 2.71671 5.53092 2.90104 5.53092H3.90104C4.08538 5.53092 4.23438 5.67992 4.23438 5.86426V10.1976ZM3.40104 4.86426C2.94071 4.86426 2.56771 4.49126 2.56771 4.03092C2.56771 3.57059 2.94071 3.19759 3.40104 3.19759C3.86138 3.19759 4.23438 3.57059 4.23438 4.03092C4.23438 4.49126 3.86138 4.86426 3.40104 4.86426ZM9.90104 10.1976C9.90104 10.3819 9.75204 10.5309 9.56771 10.5309H8.56771C8.38338 10.5309 8.23438 10.3819 8.23438 10.1976V7.69759C8.23438 7.23792 7.86071 6.86426 7.40104 6.86426C6.94138 6.86426 6.56771 7.23792 6.56771 7.69759V10.1976C6.56771 10.3819 6.41871 10.5309 6.23438 10.5309H5.23438C5.05004 10.5309 4.90104 10.3819 4.90104 10.1976V5.86426C4.90104 5.67992 5.05004 5.53092 5.23438 5.53092H6.23438C6.41871 5.53092 6.56771 5.67992 6.56771 5.86426V6.04459C6.92204 5.72626 7.38838 5.53092 7.90104 5.53092C9.00404 5.53092 9.90104 6.42792 9.90104 7.53092V10.1976Z" fill="#253343"/>
</svg>
