<svg width="16" height="16" viewBox="0 0 16 16" fill="none" xmlns="http://www.w3.org/2000/svg">
<path d="M13.4642 0.769531H3.04753C1.78419 0.769531 0.755859 1.79786 0.755859 3.0612V13.4779C0.755859 14.7412 1.78419 15.7695 3.04753 15.7695H13.4642C14.7275 15.7695 15.7559 14.7412 15.7559 13.4779V3.0612C15.7559 1.79786 14.7275 0.769531 13.4642 0.769531ZM5.75586 12.4362C5.75586 12.6666 5.56961 12.8529 5.33919 12.8529H4.08919C3.85878 12.8529 3.67253 12.6666 3.67253 12.4362V7.01953C3.67253 6.78911 3.85878 6.60286 4.08919 6.60286H5.33919C5.56961 6.60286 5.75586 6.78911 5.75586 7.01953V12.4362ZM4.71419 5.76953C4.13878 5.76953 3.67253 5.30328 3.67253 4.72786C3.67253 4.15245 4.13878 3.6862 4.71419 3.6862C5.28961 3.6862 5.75586 4.15245 5.75586 4.72786C5.75586 5.30328 5.28961 5.76953 4.71419 5.76953ZM12.8392 12.4362C12.8392 12.6666 12.6529 12.8529 12.4225 12.8529H11.1725C10.9421 12.8529 10.7559 12.6666 10.7559 12.4362V9.3112C10.7559 8.73661 10.2888 8.26953 9.71419 8.26953C9.13961 8.26953 8.67253 8.73661 8.67253 9.3112V12.4362C8.67253 12.6666 8.48628 12.8529 8.25586 12.8529H7.00586C6.77544 12.8529 6.58919 12.6666 6.58919 12.4362V7.01953C6.58919 6.78911 6.77544 6.60286 7.00586 6.60286H8.25586C8.48628 6.60286 8.67253 6.78911 8.67253 7.01953V7.24495C9.11544 6.84703 9.69836 6.60286 10.3392 6.60286C11.7179 6.60286 12.8392 7.72411 12.8392 9.10286V12.4362Z" fill="white"/>
</svg>
