<svg width="40" height="37" viewBox="0 0 40 37" fill="none" xmlns="http://www.w3.org/2000/svg">
<path d="M28.4822 6.85266L14.2506 6.10681C9.98109 5.88306 6.83726 7.85075 6.14308 12.7901L4.75471 22.6688C4.06053 27.6082 6.60935 29.8742 10.8788 30.098L25.1104 30.8438C29.3799 31.0676 32.5238 29.0999 33.2179 24.1605L34.6063 14.2818C35.3005 9.34245 32.7517 7.07641 28.4822 6.85266ZM27.9432 15.4822L22.9929 18.7769C21.9485 19.4756 20.7014 19.7799 19.506 19.7172C18.3105 19.6546 17.1524 19.2242 16.3325 18.4278L12.3738 14.6662C11.97 14.2754 11.994 13.5943 12.4133 13.1614C12.8468 12.7292 13.5275 12.6795 13.9314 13.0703L17.89 16.8319C18.8507 17.7494 20.6865 17.8457 21.8891 17.0415L26.8395 13.7468C27.3464 13.4038 28.0196 13.5101 28.31 13.9945C28.6165 14.4655 28.4502 15.1391 27.9432 15.4822Z" fill="#6D28D9"/>
</svg>
